<?xml version="1.0" encoding="UTF-8" standalone="no"?>
<!DOCTYPE svg PUBLIC "-//W3C//DTD SVG 1.1//EN"
 "http://www.w3.org/Graphics/SVG/1.1/DTD/svg11.dtd">
<!-- Generated by graphviz version 2.40.1 (20161225.0304)
 -->
<!-- Title: %3 Pages: 1 -->
<svg width="371pt" height="1058pt"
 viewBox="0.00 0.00 370.91 1058.00" xmlns="http://www.w3.org/2000/svg" xmlns:xlink="http://www.w3.org/1999/xlink">
<g id="graph0" class="graph" transform="scale(.6756 .6756) rotate(0) translate(4 1562)">
<title>%3</title>
<polygon fill="#ffffff" stroke="transparent" points="-4,4 -4,-1562 545,-1562 545,4 -4,4"/>
<!-- 140566958278976 -->
<g id="node1" class="node">
<title>140566958278976</title>
<polygon fill="#caff70" stroke="#000000" points="396.5,-21 307.5,-21 307.5,0 396.5,0 396.5,-21"/>
<text text-anchor="middle" x="352" y="-7.4" font-family="Times,serif" font-size="12.00" fill="#000000">DivBackward0</text>
</g>
<!-- 140566958279024 -->
<g id="node2" class="node">
<title>140566958279024</title>
<polygon fill="#d3d3d3" stroke="#000000" points="398,-78 306,-78 306,-57 398,-57 398,-78"/>
<text text-anchor="middle" x="352" y="-64.4" font-family="Times,serif" font-size="12.00" fill="#000000">AddBackward0</text>
</g>
<!-- 140566958279024&#45;&gt;140566958278976 -->
<g id="edge1" class="edge">
<title>140566958279024&#45;&gt;140566958278976</title>
<path fill="none" stroke="#000000" d="M352,-56.7787C352,-49.6134 352,-39.9517 352,-31.3097"/>
<polygon fill="#000000" stroke="#000000" points="355.5001,-31.1732 352,-21.1732 348.5001,-31.1732 355.5001,-31.1732"/>
</g>
<!-- 140566958279120 -->
<g id="node3" class="node">
<title>140566958279120</title>
<polygon fill="#d3d3d3" stroke="#000000" points="341,-306 249,-306 249,-285 341,-285 341,-306"/>
<text text-anchor="middle" x="295" y="-292.4" font-family="Times,serif" font-size="12.00" fill="#000000">AddBackward0</text>
</g>
<!-- 140566958279120&#45;&gt;140566958279024 -->
<g id="edge2" class="edge">
<title>140566958279120&#45;&gt;140566958279024</title>
<path fill="none" stroke="#000000" d="M297.6728,-284.8089C306.5365,-249.3539 335.067,-135.232 346.8427,-88.1292"/>
<polygon fill="#000000" stroke="#000000" points="350.3031,-88.7183 349.333,-78.168 343.5121,-87.0205 350.3031,-88.7183"/>
</g>
<!-- 140566958279264 -->
<g id="node4" class="node">
<title>140566958279264</title>
<polygon fill="#d3d3d3" stroke="#000000" points="230,-363 138,-363 138,-342 230,-342 230,-363"/>
<text text-anchor="middle" x="184" y="-349.4" font-family="Times,serif" font-size="12.00" fill="#000000">AddBackward0</text>
</g>
<!-- 140566958279264&#45;&gt;140566958279120 -->
<g id="edge3" class="edge">
<title>140566958279264&#45;&gt;140566958279120</title>
<path fill="none" stroke="#000000" d="M204.6181,-341.9123C221.7518,-333.114 246.3442,-320.4854 265.5519,-310.622"/>
<polygon fill="#000000" stroke="#000000" points="267.1955,-313.7126 274.4923,-306.031 263.9978,-307.4856 267.1955,-313.7126"/>
</g>
<!-- 140566958279408 -->
<g id="node5" class="node">
<title>140566958279408</title>
<polygon fill="#d3d3d3" stroke="#000000" points="230.5,-420 137.5,-420 137.5,-399 230.5,-399 230.5,-420"/>
<text text-anchor="middle" x="184" y="-406.4" font-family="Times,serif" font-size="12.00" fill="#000000">SumBackward0</text>
</g>
<!-- 140566958279408&#45;&gt;140566958279264 -->
<g id="edge4" class="edge">
<title>140566958279408&#45;&gt;140566958279264</title>
<path fill="none" stroke="#000000" d="M184,-398.7787C184,-391.6134 184,-381.9517 184,-373.3097"/>
<polygon fill="#000000" stroke="#000000" points="187.5001,-373.1732 184,-363.1732 180.5001,-373.1732 187.5001,-373.1732"/>
</g>
<!-- 140566958279504 -->
<g id="node6" class="node">
<title>140566958279504</title>
<polygon fill="#d3d3d3" stroke="#000000" points="230,-534 138,-534 138,-513 230,-513 230,-534"/>
<text text-anchor="middle" x="184" y="-520.4" font-family="Times,serif" font-size="12.00" fill="#000000">PowBackward0</text>
</g>
<!-- 140566958279504&#45;&gt;140566958279408 -->
<g id="edge5" class="edge">
<title>140566958279504&#45;&gt;140566958279408</title>
<path fill="none" stroke="#000000" d="M184,-512.9795C184,-494.242 184,-454.7701 184,-430.3565"/>
<polygon fill="#000000" stroke="#000000" points="187.5001,-430.3276 184,-420.3276 180.5001,-430.3277 187.5001,-430.3276"/>
</g>
<!-- 140566958279600 -->
<g id="node7" class="node">
<title>140566958279600</title>
<polygon fill="#d3d3d3" stroke="#000000" points="247,-591 157,-591 157,-570 247,-570 247,-591"/>
<text text-anchor="middle" x="202" y="-577.4" font-family="Times,serif" font-size="12.00" fill="#000000">SubBackward0</text>
</g>
<!-- 140566958279600&#45;&gt;140566958279504 -->
<g id="edge6" class="edge">
<title>140566958279600&#45;&gt;140566958279504</title>
<path fill="none" stroke="#000000" d="M198.6143,-569.7787C196.3013,-562.4542 193.1646,-552.5211 190.39,-543.7352"/>
<polygon fill="#000000" stroke="#000000" points="193.7194,-542.655 187.3705,-534.1732 187.0443,-544.763 193.7194,-542.655"/>
</g>
<!-- 140566958279696 -->
<g id="node8" class="node">
<title>140566958279696</title>
<polygon fill="#d3d3d3" stroke="#000000" points="338.5,-648 175.5,-648 175.5,-627 338.5,-627 338.5,-648"/>
<text text-anchor="middle" x="257" y="-634.4" font-family="Times,serif" font-size="12.00" fill="#000000">MkldnnConvolutionBackward</text>
</g>
<!-- 140566958279696&#45;&gt;140566958279600 -->
<g id="edge7" class="edge">
<title>140566958279696&#45;&gt;140566958279600</title>
<path fill="none" stroke="#000000" d="M246.6549,-626.7787C238.9728,-618.8173 228.3169,-607.7739 219.3411,-598.4717"/>
<polygon fill="#000000" stroke="#000000" points="221.7611,-595.9391 212.2987,-591.1732 216.7237,-600.7997 221.7611,-595.9391"/>
</g>
<!-- 140566958280032 -->
<g id="node41" class="node">
<title>140566958280032</title>
<polygon fill="#d3d3d3" stroke="#000000" points="368,-591 274,-591 274,-570 368,-570 368,-591"/>
<text text-anchor="middle" x="321" y="-577.4" font-family="Times,serif" font-size="12.00" fill="#000000">ReluBackward0</text>
</g>
<!-- 140566958279696&#45;&gt;140566958280032 -->
<g id="edge42" class="edge">
<title>140566958279696&#45;&gt;140566958280032</title>
<path fill="none" stroke="#000000" d="M269.0379,-626.7787C278.1559,-618.658 290.8741,-607.3309 301.4456,-597.9157"/>
<polygon fill="#000000" stroke="#000000" points="303.8762,-600.4378 309.0161,-591.1732 299.2206,-595.2104 303.8762,-600.4378"/>
</g>
<!-- 140566958279792 -->
<g id="node9" class="node">
<title>140566958279792</title>
<polygon fill="#d3d3d3" stroke="#000000" points="302.5,-705 211.5,-705 211.5,-684 302.5,-684 302.5,-705"/>
<text text-anchor="middle" x="257" y="-691.4" font-family="Times,serif" font-size="12.00" fill="#000000">ViewBackward</text>
</g>
<!-- 140566958279792&#45;&gt;140566958279696 -->
<g id="edge8" class="edge">
<title>140566958279792&#45;&gt;140566958279696</title>
<path fill="none" stroke="#000000" d="M257,-683.7787C257,-676.6134 257,-666.9517 257,-658.3097"/>
<polygon fill="#000000" stroke="#000000" points="260.5001,-658.1732 257,-648.1732 253.5001,-658.1732 260.5001,-658.1732"/>
</g>
<!-- 140566958279888 -->
<g id="node10" class="node">
<title>140566958279888</title>
<polygon fill="#d3d3d3" stroke="#000000" points="310,-762 204,-762 204,-741 310,-741 310,-762"/>
<text text-anchor="middle" x="257" y="-748.4" font-family="Times,serif" font-size="12.00" fill="#000000">SigmoidBackward</text>
</g>
<!-- 140566958279888&#45;&gt;140566958279792 -->
<g id="edge9" class="edge">
<title>140566958279888&#45;&gt;140566958279792</title>
<path fill="none" stroke="#000000" d="M257,-740.7787C257,-733.6134 257,-723.9517 257,-715.3097"/>
<polygon fill="#000000" stroke="#000000" points="260.5001,-715.1732 257,-705.1732 253.5001,-715.1732 260.5001,-715.1732"/>
</g>
<!-- 140566958279984 -->
<g id="node11" class="node">
<title>140566958279984</title>
<polygon fill="#d3d3d3" stroke="#000000" points="309,-819 205,-819 205,-798 309,-798 309,-819"/>
<text text-anchor="middle" x="257" y="-805.4" font-family="Times,serif" font-size="12.00" fill="#000000">AddmmBackward</text>
</g>
<!-- 140566958279984&#45;&gt;140566958279888 -->
<g id="edge10" class="edge">
<title>140566958279984&#45;&gt;140566958279888</title>
<path fill="none" stroke="#000000" d="M257,-797.7787C257,-790.6134 257,-780.9517 257,-772.3097"/>
<polygon fill="#000000" stroke="#000000" points="260.5001,-772.1732 257,-762.1732 253.5001,-772.1732 260.5001,-772.1732"/>
</g>
<!-- 140566958280080 -->
<g id="node12" class="node">
<title>140566958280080</title>
<polygon fill="#add8e6" stroke="#000000" points="192,-890 138,-890 138,-855 192,-855 192,-890"/>
<text text-anchor="middle" x="165" y="-862.4" font-family="Times,serif" font-size="12.00" fill="#000000"> (784)</text>
</g>
<!-- 140566958280080&#45;&gt;140566958279984 -->
<g id="edge11" class="edge">
<title>140566958280080&#45;&gt;140566958279984</title>
<path fill="none" stroke="#000000" d="M190.6271,-854.6724C204.0188,-845.3565 220.2974,-834.0322 233.3816,-824.9302"/>
<polygon fill="#000000" stroke="#000000" points="235.6445,-827.6197 241.8548,-819.0358 231.647,-821.8733 235.6445,-827.6197"/>
</g>
<!-- 140566958280128 -->
<g id="node13" class="node">
<title>140566958280128</title>
<polygon fill="#d3d3d3" stroke="#000000" points="304,-883 210,-883 210,-862 304,-862 304,-883"/>
<text text-anchor="middle" x="257" y="-869.4" font-family="Times,serif" font-size="12.00" fill="#000000">ReluBackward0</text>
</g>
<!-- 140566958280128&#45;&gt;140566958279984 -->
<g id="edge12" class="edge">
<title>140566958280128&#45;&gt;140566958279984</title>
<path fill="none" stroke="#000000" d="M257,-861.9317C257,-853.0913 257,-840.2122 257,-829.3135"/>
<polygon fill="#000000" stroke="#000000" points="260.5001,-829.2979 257,-819.2979 253.5001,-829.2979 260.5001,-829.2979"/>
</g>
<!-- 140566958280464 -->
<g id="node14" class="node">
<title>140566958280464</title>
<polygon fill="#d3d3d3" stroke="#000000" points="308,-954 204,-954 204,-933 308,-933 308,-954"/>
<text text-anchor="middle" x="256" y="-940.4" font-family="Times,serif" font-size="12.00" fill="#000000">AddmmBackward</text>
</g>
<!-- 140566958280464&#45;&gt;140566958280128 -->
<g id="edge13" class="edge">
<title>140566958280464&#45;&gt;140566958280128</title>
<path fill="none" stroke="#000000" d="M256.1519,-932.7166C256.2972,-922.3953 256.5206,-906.5401 256.7016,-893.6896"/>
<polygon fill="#000000" stroke="#000000" points="260.2054,-893.4332 256.8467,-883.3849 253.2061,-893.3345 260.2054,-893.4332"/>
</g>
<!-- 140566958280512 -->
<g id="node15" class="node">
<title>140566958280512</title>
<polygon fill="#add8e6" stroke="#000000" points="192,-1032 138,-1032 138,-997 192,-997 192,-1032"/>
<text text-anchor="middle" x="165" y="-1004.4" font-family="Times,serif" font-size="12.00" fill="#000000"> (400)</text>
</g>
<!-- 140566958280512&#45;&gt;140566958280464 -->
<g id="edge14" class="edge">
<title>140566958280512&#45;&gt;140566958280464</title>
<path fill="none" stroke="#000000" d="M187.4944,-996.9494C201.7906,-985.7952 220.1989,-971.4327 234.3325,-960.4054"/>
<polygon fill="#000000" stroke="#000000" points="236.7741,-962.9397 242.5053,-954.0288 232.4681,-957.4208 236.7741,-962.9397"/>
</g>
<!-- 140566958280560 -->
<g id="node16" class="node">
<title>140566958280560</title>
<polygon fill="#d3d3d3" stroke="#000000" points="302,-1025 210,-1025 210,-1004 302,-1004 302,-1025"/>
<text text-anchor="middle" x="256" y="-1011.4" font-family="Times,serif" font-size="12.00" fill="#000000">AddBackward0</text>
</g>
<!-- 140566958280560&#45;&gt;140566958280464 -->
<g id="edge15" class="edge">
<title>140566958280560&#45;&gt;140566958280464</title>
<path fill="none" stroke="#000000" d="M256,-1003.7166C256,-993.3953 256,-977.5401 256,-964.6896"/>
<polygon fill="#000000" stroke="#000000" points="259.5001,-964.3848 256,-954.3849 252.5001,-964.3849 259.5001,-964.3848"/>
</g>
<!-- 140566958280272 -->
<g id="node17" class="node">
<title>140566958280272</title>
<polygon fill="#d3d3d3" stroke="#000000" points="200,-1274 96,-1274 96,-1253 200,-1253 200,-1274"/>
<text text-anchor="middle" x="148" y="-1260.4" font-family="Times,serif" font-size="12.00" fill="#000000">AddmmBackward</text>
</g>
<!-- 140566958280272&#45;&gt;140566958280560 -->
<g id="edge16" class="edge">
<title>140566958280272&#45;&gt;140566958280560</title>
<path fill="none" stroke="#000000" d="M149.1301,-1252.5894C152.7217,-1221.685 165.9079,-1131.6745 203,-1068 210.9712,-1054.3162 223.2642,-1041.6044 234.0049,-1032.0082"/>
<polygon fill="#000000" stroke="#000000" points="236.5024,-1034.4773 241.8185,-1025.3127 231.9476,-1029.1619 236.5024,-1034.4773"/>
</g>
<!-- 140566958277920 -->
<g id="node18" class="node">
<title>140566958277920</title>
<polygon fill="#add8e6" stroke="#000000" points="54,-1345 0,-1345 0,-1310 54,-1310 54,-1345"/>
<text text-anchor="middle" x="27" y="-1317.4" font-family="Times,serif" font-size="12.00" fill="#000000"> (20)</text>
</g>
<!-- 140566958277920&#45;&gt;140566958280272 -->
<g id="edge17" class="edge">
<title>140566958277920&#45;&gt;140566958280272</title>
<path fill="none" stroke="#000000" d="M54.1548,-1313.1372C73.5234,-1302.8926 99.523,-1289.1407 119.2442,-1278.7097"/>
<polygon fill="#000000" stroke="#000000" points="120.8871,-1281.8002 128.0903,-1274.0308 117.6142,-1275.6125 120.8871,-1281.8002"/>
</g>
<!-- 140567041785920 -->
<g id="node19" class="node">
<title>140567041785920</title>
<polygon fill="#d3d3d3" stroke="#000000" points="256,-1338 162,-1338 162,-1317 256,-1317 256,-1338"/>
<text text-anchor="middle" x="209" y="-1324.4" font-family="Times,serif" font-size="12.00" fill="#000000">ReluBackward0</text>
</g>
<!-- 140567041785920&#45;&gt;140566958280272 -->
<g id="edge18" class="edge">
<title>140567041785920&#45;&gt;140566958280272</title>
<path fill="none" stroke="#000000" d="M198.9271,-1316.9317C189.7989,-1307.3546 176.1531,-1293.0376 165.2836,-1281.6336"/>
<polygon fill="#000000" stroke="#000000" points="167.7247,-1279.1218 158.2918,-1274.2979 162.6576,-1283.9514 167.7247,-1279.1218"/>
</g>
<!-- 140567041786544 -->
<g id="node29" class="node">
<title>140567041786544</title>
<polygon fill="#d3d3d3" stroke="#000000" points="342,-1274 238,-1274 238,-1253 342,-1253 342,-1274"/>
<text text-anchor="middle" x="290" y="-1260.4" font-family="Times,serif" font-size="12.00" fill="#000000">AddmmBackward</text>
</g>
<!-- 140567041785920&#45;&gt;140567041786544 -->
<g id="edge30" class="edge">
<title>140567041785920&#45;&gt;140567041786544</title>
<path fill="none" stroke="#000000" d="M222.3755,-1316.9317C234.9213,-1307.019 253.8938,-1292.0284 268.5531,-1280.4457"/>
<polygon fill="#000000" stroke="#000000" points="270.9281,-1283.0298 276.6046,-1274.084 266.5884,-1277.5374 270.9281,-1283.0298"/>
</g>
<!-- 140567041786064 -->
<g id="node20" class="node">
<title>140567041786064</title>
<polygon fill="#d3d3d3" stroke="#000000" points="261,-1409 157,-1409 157,-1388 261,-1388 261,-1409"/>
<text text-anchor="middle" x="209" y="-1395.4" font-family="Times,serif" font-size="12.00" fill="#000000">AddmmBackward</text>
</g>
<!-- 140567041786064&#45;&gt;140567041785920 -->
<g id="edge19" class="edge">
<title>140567041786064&#45;&gt;140567041785920</title>
<path fill="none" stroke="#000000" d="M209,-1387.7166C209,-1377.3953 209,-1361.5401 209,-1348.6896"/>
<polygon fill="#000000" stroke="#000000" points="212.5001,-1348.3848 209,-1338.3849 205.5001,-1348.3849 212.5001,-1348.3848"/>
</g>
<!-- 140567041786160 -->
<g id="node21" class="node">
<title>140567041786160</title>
<polygon fill="#add8e6" stroke="#000000" points="195,-1487 141,-1487 141,-1452 195,-1452 195,-1487"/>
<text text-anchor="middle" x="168" y="-1459.4" font-family="Times,serif" font-size="12.00" fill="#000000"> (400)</text>
</g>
<!-- 140567041786160&#45;&gt;140567041786064 -->
<g id="edge20" class="edge">
<title>140567041786160&#45;&gt;140567041786064</title>
<path fill="none" stroke="#000000" d="M178.1348,-1451.9494C184.0899,-1441.6371 191.6285,-1428.5824 197.7646,-1417.9563"/>
<polygon fill="#000000" stroke="#000000" points="200.9501,-1419.439 202.92,-1409.0288 194.8882,-1415.9384 200.9501,-1419.439"/>
</g>
<!-- 140567041786208 -->
<g id="node22" class="node">
<title>140567041786208</title>
<polygon fill="#d3d3d3" stroke="#000000" points="285,-1480 213,-1480 213,-1459 285,-1459 285,-1480"/>
<text text-anchor="middle" x="249" y="-1466.4" font-family="Times,serif" font-size="12.00" fill="#000000">TBackward</text>
</g>
<!-- 140567041786208&#45;&gt;140567041786064 -->
<g id="edge21" class="edge">
<title>140567041786208&#45;&gt;140567041786064</title>
<path fill="none" stroke="#000000" d="M242.9249,-1458.7166C236.8751,-1447.9782 227.4506,-1431.2498 220.0689,-1418.1472"/>
<polygon fill="#000000" stroke="#000000" points="223.0902,-1416.3794 215.1323,-1409.3849 216.9914,-1419.8153 223.0902,-1416.3794"/>
</g>
<!-- 140567041786352 -->
<g id="node23" class="node">
<title>140567041786352</title>
<polygon fill="#add8e6" stroke="#000000" points="283.5,-1558 214.5,-1558 214.5,-1523 283.5,-1523 283.5,-1558"/>
<text text-anchor="middle" x="249" y="-1530.4" font-family="Times,serif" font-size="12.00" fill="#000000"> (400, 784)</text>
</g>
<!-- 140567041786352&#45;&gt;140567041786208 -->
<g id="edge22" class="edge">
<title>140567041786352&#45;&gt;140567041786208</title>
<path fill="none" stroke="#000000" d="M249,-1522.9494C249,-1513.058 249,-1500.6435 249,-1490.2693"/>
<polygon fill="#000000" stroke="#000000" points="252.5001,-1490.0288 249,-1480.0288 245.5001,-1490.0289 252.5001,-1490.0288"/>
</g>
<!-- 140567041785968 -->
<g id="node24" class="node">
<title>140567041785968</title>
<polygon fill="#d3d3d3" stroke="#000000" points="144,-1338 72,-1338 72,-1317 144,-1317 144,-1338"/>
<text text-anchor="middle" x="108" y="-1324.4" font-family="Times,serif" font-size="12.00" fill="#000000">TBackward</text>
</g>
<!-- 140567041785968&#45;&gt;140566958280272 -->
<g id="edge23" class="edge">
<title>140567041785968&#45;&gt;140566958280272</title>
<path fill="none" stroke="#000000" d="M114.6052,-1316.9317C120.3606,-1307.723 128.855,-1294.1319 135.8363,-1282.9619"/>
<polygon fill="#000000" stroke="#000000" points="138.9193,-1284.6329 141.2513,-1274.2979 132.9833,-1280.9229 138.9193,-1284.6329"/>
</g>
<!-- 140567041786112 -->
<g id="node25" class="node">
<title>140567041786112</title>
<polygon fill="#add8e6" stroke="#000000" points="138.5,-1416 75.5,-1416 75.5,-1381 138.5,-1381 138.5,-1416"/>
<text text-anchor="middle" x="107" y="-1388.4" font-family="Times,serif" font-size="12.00" fill="#000000"> (20, 400)</text>
</g>
<!-- 140567041786112&#45;&gt;140567041785968 -->
<g id="edge24" class="edge">
<title>140567041786112&#45;&gt;140567041785968</title>
<path fill="none" stroke="#000000" d="M107.2472,-1380.9494C107.3865,-1371.058 107.5614,-1358.6435 107.7075,-1348.2693"/>
<polygon fill="#000000" stroke="#000000" points="111.2104,-1348.0772 107.8517,-1338.0288 104.2111,-1347.9785 111.2104,-1348.0772"/>
</g>
<!-- 140566958280608 -->
<g id="node26" class="node">
<title>140566958280608</title>
<polygon fill="#d3d3d3" stroke="#000000" points="303.5,-1096 212.5,-1096 212.5,-1075 303.5,-1075 303.5,-1096"/>
<text text-anchor="middle" x="258" y="-1082.4" font-family="Times,serif" font-size="12.00" fill="#000000">MulBackward0</text>
</g>
<!-- 140566958280608&#45;&gt;140566958280560 -->
<g id="edge25" class="edge">
<title>140566958280608&#45;&gt;140566958280560</title>
<path fill="none" stroke="#000000" d="M257.6962,-1074.7166C257.4055,-1064.3953 256.9589,-1048.5401 256.5969,-1035.6896"/>
<polygon fill="#000000" stroke="#000000" points="260.0869,-1035.2823 256.3066,-1025.3849 253.0897,-1035.4795 260.0869,-1035.2823"/>
</g>
<!-- 140567041786016 -->
<g id="node27" class="node">
<title>140567041786016</title>
<polygon fill="#d3d3d3" stroke="#000000" points="313,-1160 229,-1160 229,-1139 313,-1139 313,-1160"/>
<text text-anchor="middle" x="271" y="-1146.4" font-family="Times,serif" font-size="12.00" fill="#000000">ExpBackward</text>
</g>
<!-- 140567041786016&#45;&gt;140566958280608 -->
<g id="edge26" class="edge">
<title>140567041786016&#45;&gt;140566958280608</title>
<path fill="none" stroke="#000000" d="M268.8533,-1138.9317C267.0576,-1130.0913 264.4415,-1117.2122 262.2277,-1106.3135"/>
<polygon fill="#000000" stroke="#000000" points="265.614,-1105.4011 260.1933,-1096.2979 258.754,-1106.7945 265.614,-1105.4011"/>
</g>
<!-- 140567041786400 -->
<g id="node28" class="node">
<title>140567041786400</title>
<polygon fill="#d3d3d3" stroke="#000000" points="322.5,-1217 231.5,-1217 231.5,-1196 322.5,-1196 322.5,-1217"/>
<text text-anchor="middle" x="277" y="-1203.4" font-family="Times,serif" font-size="12.00" fill="#000000">MulBackward0</text>
</g>
<!-- 140567041786400&#45;&gt;140567041786016 -->
<g id="edge27" class="edge">
<title>140567041786400&#45;&gt;140567041786016</title>
<path fill="none" stroke="#000000" d="M275.8714,-1195.7787C275.1172,-1188.6134 274.1002,-1178.9517 273.1905,-1170.3097"/>
<polygon fill="#000000" stroke="#000000" points="276.6512,-1169.7518 272.1235,-1160.1732 269.6897,-1170.4847 276.6512,-1169.7518"/>
</g>
<!-- 140567041786544&#45;&gt;140567041786400 -->
<g id="edge28" class="edge">
<title>140567041786544&#45;&gt;140567041786400</title>
<path fill="none" stroke="#000000" d="M287.5548,-1252.7787C285.9024,-1245.5338 283.668,-1235.7367 281.6805,-1227.0221"/>
<polygon fill="#000000" stroke="#000000" points="285.0703,-1226.1445 279.4342,-1217.1732 278.2455,-1227.7011 285.0703,-1226.1445"/>
</g>
<!-- 140567041786640 -->
<g id="node30" class="node">
<title>140567041786640</title>
<polygon fill="#add8e6" stroke="#000000" points="418,-1345 364,-1345 364,-1310 418,-1310 418,-1345"/>
<text text-anchor="middle" x="391" y="-1317.4" font-family="Times,serif" font-size="12.00" fill="#000000"> (20)</text>
</g>
<!-- 140567041786640&#45;&gt;140567041786544 -->
<g id="edge29" class="edge">
<title>140567041786640&#45;&gt;140567041786544</title>
<path fill="none" stroke="#000000" d="M363.9339,-1310.3492C348.8364,-1300.7825 330.1484,-1288.9406 315.3385,-1279.5561"/>
<polygon fill="#000000" stroke="#000000" points="317.0055,-1276.4689 306.6852,-1274.0728 313.2587,-1282.3818 317.0055,-1276.4689"/>
</g>
<!-- 140567041786688 -->
<g id="node31" class="node">
<title>140567041786688</title>
<polygon fill="#d3d3d3" stroke="#000000" points="346,-1338 274,-1338 274,-1317 346,-1317 346,-1338"/>
<text text-anchor="middle" x="310" y="-1324.4" font-family="Times,serif" font-size="12.00" fill="#000000">TBackward</text>
</g>
<!-- 140567041786688&#45;&gt;140567041786544 -->
<g id="edge31" class="edge">
<title>140567041786688&#45;&gt;140567041786544</title>
<path fill="none" stroke="#000000" d="M306.6974,-1316.9317C303.906,-1307.9992 299.8261,-1294.9434 296.398,-1283.9736"/>
<polygon fill="#000000" stroke="#000000" points="299.6978,-1282.7987 293.3743,-1274.2979 293.0165,-1284.8867 299.6978,-1282.7987"/>
</g>
<!-- 140567041786784 -->
<g id="node32" class="node">
<title>140567041786784</title>
<polygon fill="#add8e6" stroke="#000000" points="342.5,-1416 279.5,-1416 279.5,-1381 342.5,-1381 342.5,-1416"/>
<text text-anchor="middle" x="311" y="-1388.4" font-family="Times,serif" font-size="12.00" fill="#000000"> (20, 400)</text>
</g>
<!-- 140567041786784&#45;&gt;140567041786688 -->
<g id="edge32" class="edge">
<title>140567041786784&#45;&gt;140567041786688</title>
<path fill="none" stroke="#000000" d="M310.7528,-1380.9494C310.6135,-1371.058 310.4386,-1358.6435 310.2925,-1348.2693"/>
<polygon fill="#000000" stroke="#000000" points="313.7889,-1347.9785 310.1483,-1338.0288 306.7896,-1348.0772 313.7889,-1347.9785"/>
</g>
<!-- 140566958280368 -->
<g id="node33" class="node">
<title>140566958280368</title>
<polygon fill="#d3d3d3" stroke="#000000" points="392,-1025 320,-1025 320,-1004 392,-1004 392,-1025"/>
<text text-anchor="middle" x="356" y="-1011.4" font-family="Times,serif" font-size="12.00" fill="#000000">TBackward</text>
</g>
<!-- 140566958280368&#45;&gt;140566958280464 -->
<g id="edge33" class="edge">
<title>140566958280368&#45;&gt;140566958280464</title>
<path fill="none" stroke="#000000" d="M340.8122,-1003.7166C324.492,-992.1293 298.3486,-973.5675 279.398,-960.1126"/>
<polygon fill="#000000" stroke="#000000" points="281.1832,-957.0876 271.0031,-954.1522 277.1307,-962.7953 281.1832,-957.0876"/>
</g>
<!-- 140566958280656 -->
<g id="node34" class="node">
<title>140566958280656</title>
<polygon fill="#add8e6" stroke="#000000" points="387.5,-1103 324.5,-1103 324.5,-1068 387.5,-1068 387.5,-1103"/>
<text text-anchor="middle" x="356" y="-1075.4" font-family="Times,serif" font-size="12.00" fill="#000000"> (400, 20)</text>
</g>
<!-- 140566958280656&#45;&gt;140566958280368 -->
<g id="edge34" class="edge">
<title>140566958280656&#45;&gt;140566958280368</title>
<path fill="none" stroke="#000000" d="M356,-1067.9494C356,-1058.058 356,-1045.6435 356,-1035.2693"/>
<polygon fill="#000000" stroke="#000000" points="359.5001,-1035.0288 356,-1025.0288 352.5001,-1035.0289 359.5001,-1035.0288"/>
</g>
<!-- 140566958280176 -->
<g id="node35" class="node">
<title>140566958280176</title>
<polygon fill="#d3d3d3" stroke="#000000" points="396,-883 324,-883 324,-862 396,-862 396,-883"/>
<text text-anchor="middle" x="360" y="-869.4" font-family="Times,serif" font-size="12.00" fill="#000000">TBackward</text>
</g>
<!-- 140566958280176&#45;&gt;140566958279984 -->
<g id="edge35" class="edge">
<title>140566958280176&#45;&gt;140566958279984</title>
<path fill="none" stroke="#000000" d="M342.9916,-861.9317C326.5911,-851.7411 301.5536,-836.1838 282.7173,-824.4797"/>
<polygon fill="#000000" stroke="#000000" points="284.3747,-821.3889 274.0336,-819.084 280.6803,-827.3346 284.3747,-821.3889"/>
</g>
<!-- 140566958280416 -->
<g id="node36" class="node">
<title>140566958280416</title>
<polygon fill="#add8e6" stroke="#000000" points="395.5,-961 326.5,-961 326.5,-926 395.5,-926 395.5,-961"/>
<text text-anchor="middle" x="361" y="-933.4" font-family="Times,serif" font-size="12.00" fill="#000000"> (784, 400)</text>
</g>
<!-- 140566958280416&#45;&gt;140566958280176 -->
<g id="edge36" class="edge">
<title>140566958280416&#45;&gt;140566958280176</title>
<path fill="none" stroke="#000000" d="M360.7528,-925.9494C360.6135,-916.058 360.4386,-903.6435 360.2925,-893.2693"/>
<polygon fill="#000000" stroke="#000000" points="363.7889,-892.9785 360.1483,-883.0288 356.7896,-893.0772 363.7889,-892.9785"/>
</g>
<!-- 140566958279312 -->
<g id="node37" class="node">
<title>140566958279312</title>
<polygon fill="#d3d3d3" stroke="#000000" points="341.5,-363 248.5,-363 248.5,-342 341.5,-342 341.5,-363"/>
<text text-anchor="middle" x="295" y="-349.4" font-family="Times,serif" font-size="12.00" fill="#000000">SumBackward0</text>
</g>
<!-- 140566958279312&#45;&gt;140566958279120 -->
<g id="edge37" class="edge">
<title>140566958279312&#45;&gt;140566958279120</title>
<path fill="none" stroke="#000000" d="M295,-341.7787C295,-334.6134 295,-324.9517 295,-316.3097"/>
<polygon fill="#000000" stroke="#000000" points="298.5001,-316.1732 295,-306.1732 291.5001,-316.1732 298.5001,-316.1732"/>
</g>
<!-- 140566958279456 -->
<g id="node38" class="node">
<title>140566958279456</title>
<polygon fill="#d3d3d3" stroke="#000000" points="341,-420 249,-420 249,-399 341,-399 341,-420"/>
<text text-anchor="middle" x="295" y="-406.4" font-family="Times,serif" font-size="12.00" fill="#000000">PowBackward0</text>
</g>
<!-- 140566958279456&#45;&gt;140566958279312 -->
<g id="edge38" class="edge">
<title>140566958279456&#45;&gt;140566958279312</title>
<path fill="none" stroke="#000000" d="M295,-398.7787C295,-391.6134 295,-381.9517 295,-373.3097"/>
<polygon fill="#000000" stroke="#000000" points="298.5001,-373.1732 295,-363.1732 291.5001,-373.1732 298.5001,-373.1732"/>
</g>
<!-- 140566958279648 -->
<g id="node39" class="node">
<title>140566958279648</title>
<polygon fill="#d3d3d3" stroke="#000000" points="351,-477 261,-477 261,-456 351,-456 351,-477"/>
<text text-anchor="middle" x="306" y="-463.4" font-family="Times,serif" font-size="12.00" fill="#000000">SubBackward0</text>
</g>
<!-- 140566958279648&#45;&gt;140566958279456 -->
<g id="edge39" class="edge">
<title>140566958279648&#45;&gt;140566958279456</title>
<path fill="none" stroke="#000000" d="M303.931,-455.7787C302.5328,-448.5338 300.6422,-438.7367 298.9604,-430.0221"/>
<polygon fill="#000000" stroke="#000000" points="302.3913,-429.3288 297.0597,-420.1732 295.5181,-430.6553 302.3913,-429.3288"/>
</g>
<!-- 140566958279840 -->
<g id="node40" class="node">
<title>140566958279840</title>
<polygon fill="#d3d3d3" stroke="#000000" points="411.5,-534 248.5,-534 248.5,-513 411.5,-513 411.5,-534"/>
<text text-anchor="middle" x="330" y="-520.4" font-family="Times,serif" font-size="12.00" fill="#000000">MkldnnConvolutionBackward</text>
</g>
<!-- 140566958279840&#45;&gt;140566958279648 -->
<g id="edge40" class="edge">
<title>140566958279840&#45;&gt;140566958279648</title>
<path fill="none" stroke="#000000" d="M325.4858,-512.7787C322.3682,-505.3746 318.1284,-495.3049 314.3996,-486.4491"/>
<polygon fill="#000000" stroke="#000000" points="317.6003,-485.0313 310.494,-477.1732 311.1489,-487.7478 317.6003,-485.0313"/>
</g>
<!-- 140567041786832 -->
<g id="node48" class="node">
<title>140567041786832</title>
<polygon fill="#d3d3d3" stroke="#000000" points="485,-477 391,-477 391,-456 485,-456 485,-477"/>
<text text-anchor="middle" x="438" y="-463.4" font-family="Times,serif" font-size="12.00" fill="#000000">ReluBackward0</text>
</g>
<!-- 140566958279840&#45;&gt;140567041786832 -->
<g id="edge50" class="edge">
<title>140566958279840&#45;&gt;140567041786832</title>
<path fill="none" stroke="#000000" d="M350.0609,-512.9123C366.6557,-504.154 390.4418,-491.6001 409.0926,-481.7567"/>
<polygon fill="#000000" stroke="#000000" points="410.8364,-484.794 418.0466,-477.031 407.569,-478.6033 410.8364,-484.794"/>
</g>
<!-- 140566958280032&#45;&gt;140566958279840 -->
<g id="edge41" class="edge">
<title>140566958280032&#45;&gt;140566958279840</title>
<path fill="none" stroke="#000000" d="M322.6928,-569.7787C323.8242,-562.6134 325.3497,-552.9517 326.7143,-544.3097"/>
<polygon fill="#000000" stroke="#000000" points="330.2122,-544.5967 328.3148,-534.1732 323.2979,-543.5049 330.2122,-544.5967"/>
</g>
<!-- 140566958279168 -->
<g id="node42" class="node">
<title>140566958279168</title>
<polygon fill="#d3d3d3" stroke="#000000" points="446.5,-135 353.5,-135 353.5,-114 446.5,-114 446.5,-135"/>
<text text-anchor="middle" x="400" y="-121.4" font-family="Times,serif" font-size="12.00" fill="#000000">SumBackward0</text>
</g>
<!-- 140566958279168&#45;&gt;140566958279024 -->
<g id="edge43" class="edge">
<title>140566958279168&#45;&gt;140566958279024</title>
<path fill="none" stroke="#000000" d="M390.9716,-113.7787C384.4012,-105.9765 375.3384,-95.2144 367.6058,-86.0318"/>
<polygon fill="#000000" stroke="#000000" points="370.1065,-83.5678 360.9879,-78.1732 364.7521,-88.0768 370.1065,-83.5678"/>
</g>
<!-- 140566958279360 -->
<g id="node43" class="node">
<title>140566958279360</title>
<polygon fill="#d3d3d3" stroke="#000000" points="451,-192 359,-192 359,-171 451,-171 451,-192"/>
<text text-anchor="middle" x="405" y="-178.4" font-family="Times,serif" font-size="12.00" fill="#000000">PowBackward0</text>
</g>
<!-- 140566958279360&#45;&gt;140566958279168 -->
<g id="edge44" class="edge">
<title>140566958279360&#45;&gt;140566958279168</title>
<path fill="none" stroke="#000000" d="M404.0595,-170.7787C403.431,-163.6134 402.5835,-153.9517 401.8254,-145.3097"/>
<polygon fill="#000000" stroke="#000000" points="405.2968,-144.8291 400.9362,-135.1732 398.3236,-145.4408 405.2968,-144.8291"/>
</g>
<!-- 140566958279744 -->
<g id="node44" class="node">
<title>140566958279744</title>
<polygon fill="#d3d3d3" stroke="#000000" points="460,-249 370,-249 370,-228 460,-228 460,-249"/>
<text text-anchor="middle" x="415" y="-235.4" font-family="Times,serif" font-size="12.00" fill="#000000">SubBackward0</text>
</g>
<!-- 140566958279744&#45;&gt;140566958279360 -->
<g id="edge45" class="edge">
<title>140566958279744&#45;&gt;140566958279360</title>
<path fill="none" stroke="#000000" d="M413.1191,-227.7787C411.862,-220.6134 410.167,-210.9517 408.6508,-202.3097"/>
<polygon fill="#000000" stroke="#000000" points="412.0479,-201.4179 406.8725,-192.1732 405.1532,-202.6276 412.0479,-201.4179"/>
</g>
<!-- 140566958280224 -->
<g id="node45" class="node">
<title>140566958280224</title>
<polygon fill="#d3d3d3" stroke="#000000" points="473,-306 369,-306 369,-285 473,-285 473,-306"/>
<text text-anchor="middle" x="421" y="-292.4" font-family="Times,serif" font-size="12.00" fill="#000000">AddmmBackward</text>
</g>
<!-- 140566958280224&#45;&gt;140566958279744 -->
<g id="edge46" class="edge">
<title>140566958280224&#45;&gt;140566958279744</title>
<path fill="none" stroke="#000000" d="M419.8714,-284.7787C419.1172,-277.6134 418.1002,-267.9517 417.1905,-259.3097"/>
<polygon fill="#000000" stroke="#000000" points="420.6512,-258.7518 416.1235,-249.1732 413.6897,-259.4847 420.6512,-258.7518"/>
</g>
<!-- 140567041786256 -->
<g id="node46" class="node">
<title>140567041786256</title>
<polygon fill="#d3d3d3" stroke="#000000" points="485.5,-363 394.5,-363 394.5,-342 485.5,-342 485.5,-363"/>
<text text-anchor="middle" x="440" y="-349.4" font-family="Times,serif" font-size="12.00" fill="#000000">ViewBackward</text>
</g>
<!-- 140567041786256&#45;&gt;140566958280224 -->
<g id="edge47" class="edge">
<title>140567041786256&#45;&gt;140566958280224</title>
<path fill="none" stroke="#000000" d="M436.4262,-341.7787C433.9847,-334.4542 430.6737,-324.5211 427.7451,-315.7352"/>
<polygon fill="#000000" stroke="#000000" points="431.0405,-314.5532 424.5577,-306.1732 424.3997,-316.7668 431.0405,-314.5532"/>
</g>
<!-- 140567041786592 -->
<g id="node47" class="node">
<title>140567041786592</title>
<polygon fill="#d3d3d3" stroke="#000000" points="541,-420 359,-420 359,-399 541,-399 541,-420"/>
<text text-anchor="middle" x="450" y="-406.4" font-family="Times,serif" font-size="12.00" fill="#000000">MaxPool2DWithIndicesBackward</text>
</g>
<!-- 140567041786592&#45;&gt;140567041786256 -->
<g id="edge48" class="edge">
<title>140567041786592&#45;&gt;140567041786256</title>
<path fill="none" stroke="#000000" d="M448.1191,-398.7787C446.862,-391.6134 445.167,-381.9517 443.6508,-373.3097"/>
<polygon fill="#000000" stroke="#000000" points="447.0479,-372.4179 441.8725,-363.1732 440.1532,-373.6276 447.0479,-372.4179"/>
</g>
<!-- 140567041786832&#45;&gt;140567041786592 -->
<g id="edge49" class="edge">
<title>140567041786832&#45;&gt;140567041786592</title>
<path fill="none" stroke="#000000" d="M440.2571,-455.7787C441.7824,-448.5338 443.8449,-438.7367 445.6796,-430.0221"/>
<polygon fill="#000000" stroke="#000000" points="449.1178,-430.6798 447.753,-420.1732 442.2679,-429.2376 449.1178,-430.6798"/>
</g>
</g>
</svg>
